<svg xmlns="http://www.w3.org/2000/svg" xmlns:xlink="http://www.w3.org/1999/xlink" version="1.1" x="0px" y="0px" viewBox="0 0 100 125" enable-background="new 0 0 100 100" xml:space="preserve"><g><path fill="#000000" d="M34.457,32.881c-0.198,0.613-0.037,1.276,0.426,1.727l6.265,6.104l-1.479,8.623   c-0.107,0.629,0.155,1.276,0.671,1.648c0.289,0.211,0.628,0.32,0.986,0.32c0.271,0,0.542-0.066,0.785-0.19l7.743-4.074l7.747,4.076   c0.574,0.29,1.255,0.238,1.769-0.132c0.513-0.374,0.777-1.02,0.672-1.646l-1.479-8.626l6.265-6.104   c0.46-0.454,0.622-1.115,0.422-1.729c-0.2-0.611-0.722-1.05-1.356-1.143l-8.657-1.259l-3.873-7.847   c-0.288-0.578-0.866-0.936-1.509-0.936c-0.644,0-1.223,0.359-1.509,0.938l-3.874,7.844l-8.657,1.259   C35.178,31.829,34.659,32.268,34.457,32.881z M55.576,38.92c-0.4,0.387-0.578,0.946-0.481,1.491l1.05,6.133l-5.509-2.898   c-0.241-0.125-0.512-0.191-0.781-0.191c-0.273,0-0.544,0.066-0.786,0.191l-5.505,2.898l1.05-6.131   c0.095-0.547-0.086-1.104-0.482-1.491l-4.455-4.343l6.154-0.896c0.547-0.077,1.021-0.422,1.27-0.921l2.752-5.58l2.752,5.58   c0.246,0.499,0.724,0.844,1.27,0.919l6.155,0.897L55.576,38.92z"/><path fill="#000000" d="M7.604,34.073l2.906,5.41c0.294,0.547,0.862,0.887,1.483,0.887h0.048h0.008   c0.636-0.02,1.216-0.409,1.479-0.992l2.526-5.595l6.045-1.094c0.634-0.116,1.138-0.572,1.317-1.192   c0.177-0.611-0.014-1.282-0.485-1.708l-4.542-4.135l0.828-6.083c0.087-0.64-0.19-1.262-0.727-1.625   c-0.522-0.355-1.233-0.379-1.775-0.064l-5.334,3.043l-5.529-2.667c-0.564-0.279-1.273-0.202-1.77,0.188   C3.575,18.842,3.34,19.48,3.47,20.113l1.245,6.013l-4.247,4.438c-0.445,0.467-0.586,1.134-0.366,1.741   C0.32,32.9,0.869,33.331,1.5,33.399L7.604,34.073z M7.46,22.771l3.256,1.57c0.491,0.232,1.094,0.22,1.566-0.056l3.139-1.791   l-0.488,3.581c-0.075,0.549,0.125,1.1,0.536,1.475l2.674,2.432l-3.559,0.644c-0.545,0.099-1.007,0.458-1.235,0.964l-1.487,3.295   l-1.709-3.186c-0.259-0.483-0.744-0.811-1.299-0.875l-3.593-0.398l2.499-2.61c0.384-0.398,0.545-0.962,0.434-1.507L7.46,22.771z"/><path fill="#000000" d="M99.449,51.7l-4.543-4.132l0.831-6.086c0.086-0.637-0.191-1.259-0.728-1.625   c-0.529-0.353-1.235-0.374-1.78-0.062l-5.33,3.04l-5.53-2.668c-0.564-0.265-1.268-0.198-1.767,0.191   c-0.506,0.396-0.741,1.033-0.616,1.668l1.248,6.013l-4.245,4.435c-0.443,0.459-0.588,1.143-0.368,1.745   c0.226,0.605,0.762,1.024,1.398,1.094l6.104,0.674l2.907,5.409c0.292,0.547,0.86,0.887,1.482,0.887h0.05h0.009   c0.637-0.023,1.218-0.413,1.476-0.991l2.529-5.598l6.04-1.091c0.64-0.116,1.147-0.575,1.319-1.194   C100.11,52.8,99.921,52.128,99.449,51.7z M83.979,44.685l3.256,1.571c0.488,0.232,1.098,0.217,1.564-0.056l3.14-1.793L91.45,47.99   c-0.075,0.553,0.127,1.104,0.54,1.472l2.671,2.434l-3.551,0.644c-0.551,0.093-1.016,0.454-1.239,0.965l-1.489,3.294l-1.711-3.185   c-0.263-0.486-0.747-0.815-1.3-0.878l-3.592-0.396l2.496-2.607c0.381-0.394,0.545-0.956,0.439-1.509L83.979,44.685z"/><path fill="#000000" d="M64.271,25.048c3.361,0,6.099-2.733,6.099-6.095s-2.737-6.097-6.099-6.097s-6.095,2.735-6.095,6.097   S60.909,25.048,64.271,25.048z M64.271,16.225c1.504,0,2.729,1.225,2.729,2.729c0,1.505-1.225,2.727-2.729,2.727   c-1.502,0-2.725-1.222-2.725-2.727C61.546,17.449,62.769,16.225,64.271,16.225z"/><path fill="#000000" d="M15.254,75.025c-3.361,0-6.095,2.733-6.095,6.095s2.734,6.095,6.095,6.095c3.362,0,6.096-2.733,6.096-6.095   S18.616,75.025,15.254,75.025z M15.254,83.847c-1.504,0-2.728-1.223-2.728-2.727s1.224-2.729,2.728-2.729   c1.504,0,2.728,1.225,2.728,2.729S16.759,83.847,15.254,83.847z"/><path fill="#000000" d="M84.779,68.12c-3.364,0-6.099,2.735-6.099,6.097s2.734,6.094,6.099,6.094c3.361,0,6.095-2.732,6.095-6.094   S88.141,68.12,84.779,68.12z M84.779,76.943c-1.505,0-2.727-1.223-2.727-2.727c0-1.505,1.222-2.729,2.727-2.729   c1.504,0,2.727,1.225,2.727,2.729C87.506,75.721,86.283,76.943,84.779,76.943z"/><path fill="#000000" d="M11.575,57.446c0-2.86,2.327-5.188,5.188-5.188c0.928,0,1.684-0.756,1.684-1.683   c0-0.928-0.755-1.684-1.684-1.684c-2.837,0-5.163-2.309-5.185-5.147c-0.007-0.923-0.766-1.672-1.689-1.672   c-0.922,0-1.678,0.751-1.684,1.672c-0.022,2.834-2.346,5.144-5.237,5.146c-0.929,0-1.684,0.756-1.684,1.688   c0,0.66,0.417,1.263,1.048,1.527c0.078,0.037,0.149,0.052,0.256,0.08c0.067,0.023,0.157,0.056,0.271,0.066l0.161,0.007   c2.86,0,5.187,2.328,5.187,5.188c0,0.927,0.755,1.683,1.684,1.683S11.575,58.373,11.575,57.446z M9.891,52.354   c-0.503-0.678-1.107-1.28-1.785-1.784c0.679-0.506,1.282-1.108,1.785-1.786c0.503,0.678,1.107,1.283,1.785,1.786   C10.999,51.074,10.396,51.677,9.891,52.354z"/><path fill="#000000" d="M25.55,16.516c0.058,0.025,0.121,0.043,0.248,0.075c0.069,0.023,0.159,0.056,0.271,0.066l0.161,0.007   c2.86,0,5.188,2.328,5.188,5.188c0,0.927,0.753,1.683,1.683,1.683c0.927,0,1.683-0.756,1.683-1.683c0-2.86,2.329-5.188,5.191-5.188   c0.927,0,1.683-0.756,1.683-1.684c0-0.93-0.755-1.685-1.683-1.685c-2.836,0-5.163-2.31-5.187-5.146   c-0.006-0.921-0.764-1.672-1.689-1.672c-0.923,0-1.677,0.751-1.685,1.672c-0.021,2.836-2.348,5.146-5.234,5.146   c-0.93,0-1.685,0.755-1.685,1.688C24.495,15.644,24.911,16.246,25.55,16.516z M31.315,14.977c0.68-0.506,1.283-1.108,1.786-1.786   c0.503,0.678,1.106,1.282,1.786,1.786c-0.678,0.504-1.283,1.106-1.786,1.784C32.598,16.083,31.995,15.48,31.315,14.977z"/><path fill="#000000" d="M76.884,23.353c0.079,0.036,0.148,0.054,0.26,0.083c0.067,0.024,0.168,0.059,0.278,0.065l0.159,0.008   c2.859,0,5.186,2.327,5.186,5.187c0,0.93,0.754,1.686,1.681,1.686c0.93,0,1.688-0.756,1.688-1.686c0-2.859,2.326-5.187,5.187-5.187   c0.928,0,1.683-0.755,1.683-1.685c0-0.928-0.755-1.683-1.683-1.683c-2.837,0-5.163-2.31-5.187-5.147   c-0.007-0.922-0.764-1.67-1.688-1.67c-0.921,0-1.674,0.748-1.681,1.67c-0.023,2.834-2.348,5.143-5.24,5.145   c-0.927,0-1.683,0.756-1.683,1.689C75.844,22.489,76.262,23.092,76.884,23.353z M82.668,21.822   c0.676-0.506,1.278-1.108,1.782-1.788c0.505,0.68,1.107,1.284,1.783,1.788c-0.676,0.501-1.278,1.104-1.783,1.784   C83.946,22.928,83.344,22.325,82.668,21.822z"/><path fill="#000000" d="M49.854,54.786c-0.928,0-1.685,0.755-1.685,1.685v35.37c0,0.928,0.757,1.681,1.685,1.681   c0.927,0,1.685-0.753,1.685-1.681v-35.37C51.539,55.541,50.782,54.786,49.854,54.786z"/><path fill="#000000" d="M80.688,37.304c0.333-0.302,0.529-0.717,0.551-1.167c0.023-0.447-0.132-0.878-0.433-1.213   c-0.599-0.659-1.711-0.72-2.378-0.121c-14.339,12.94-22.563,31.43-22.563,50.729c0,2.133,0.103,4.307,0.301,6.467   c0.086,0.87,0.808,1.523,1.679,1.523l0.159-0.006c0.447-0.043,0.853-0.256,1.139-0.604c0.286-0.347,0.422-0.783,0.381-1.229   c-0.191-2.046-0.288-4.116-0.288-6.15C59.235,67.182,67.056,49.603,80.688,37.304z"/><path fill="#000000" d="M84.549,61.466c0.064-0.445-0.047-0.889-0.316-1.25c-0.538-0.719-1.645-0.881-2.356-0.343   c-8.997,6.693-15.299,16.418-17.743,27.382c-0.323,1.451-0.579,2.923-0.762,4.375c-0.112,0.922,0.542,1.765,1.45,1.879   c0.073,0.009,0.15,0.013,0.224,0.013c0.844,0,1.559-0.632,1.666-1.472c0.177-1.379,0.415-2.746,0.71-4.061   c2.264-10.175,8.111-19.2,16.465-25.415C84.247,62.305,84.484,61.911,84.549,61.466z"/><path fill="#000000" d="M17.767,59.871c-0.718-0.531-1.821-0.37-2.356,0.347c-0.554,0.744-0.398,1.801,0.346,2.356   c8.352,6.213,14.198,15.238,16.464,25.415c0.299,1.347,0.538,2.714,0.708,4.061c0.108,0.84,0.827,1.472,1.67,1.472   c0.071,0,0.142-0.004,0.211-0.013c0.448-0.056,0.846-0.281,1.124-0.637c0.275-0.357,0.396-0.799,0.338-1.244   c-0.191-1.495-0.448-2.968-0.764-4.373C33.066,76.293,26.766,66.568,17.767,59.871z"/><path fill="#000000" d="M21.174,34.803c-0.665-0.599-1.781-0.542-2.378,0.121c-0.302,0.335-0.456,0.766-0.433,1.216   c0.023,0.449,0.219,0.862,0.554,1.164c13.63,12.301,21.449,29.878,21.449,48.228c0,2.054-0.095,4.124-0.286,6.148   c-0.043,0.448,0.092,0.885,0.376,1.231c0.289,0.349,0.693,0.562,1.132,0.603l0.168,0.008c0.874,0,1.592-0.656,1.676-1.525   c0.2-2.139,0.301-4.312,0.301-6.465C43.734,66.232,35.511,47.743,21.174,34.803z"/></g><text x="0" y="115" fill="#000000" font-size="5px" font-weight="bold" font-family="'Helvetica Neue', Helvetica, Arial-Unicode, Arial, Sans-serif">Created by Stefan Parnarov</text><text x="0" y="120" fill="#000000" font-size="5px" font-weight="bold" font-family="'Helvetica Neue', Helvetica, Arial-Unicode, Arial, Sans-serif">from the Noun Project</text></svg>